<svg xmlns="http://www.w3.org/2000/svg" width="531" height="98" viewBox="0 0 531 98">
  <g fill="none" transform="translate(.74)">
    <g fill="#000" transform="translate(294.844 18.301)">
      <path d="M111.825121,0.0101730104 C114.008927,0.688373702 116.338547,1.11564014 118.349412,2.14650519 C124.894048,5.51038062 127.505121,11.3327336 127.254187,18.3385467 C126.915087,28.5556401 119.454879,37.6231834 109.868512,39.7018685 C103.062768,41.183737 96.5079585,40.6140484 91.2552941,35.4156401 C85.5143253,29.7357093 84.7649135,22.8044983 87.4200692,15.5782699 C90.5703114,7.01259516 96.6808997,1.64802768 105.958685,0.281453287 C106.226915,0.21677189 106.488145,0.125909208 106.738616,0.0101730104 L111.825121,0.0101730104 Z M105.005813,29.5627682 C110.702554,29.5433479 115.503932,25.3075203 116.233426,19.6576471 C116.833633,14.5406228 113.608789,10.8715571 108.471419,10.8410381 C102.837528,10.8405447 98.0507347,14.9612239 97.2132872,20.532526 C96.4367474,25.8394464 99.6175087,29.5390311 105.005813,29.5627682 Z"/>
      <path d="M153.195363.0101730104C155.287612.640899654 157.481592 1.02747405 159.448374 1.94304498 165.640346 4.77453287 169.282284 11.5565398 168.749896 18.9184083 167.98692 29.1694118 159.950242 38.7998616 149.455087 40.1020069 142.059308 41.0209689 135.412941 39.6170934 130.804567 33.2047059 126.443737 27.1280277 126.582768 20.4714879 129.526159 13.9505882 132.968028 6.33439446 138.8209 1.50899654 147.335709.298408304 147.603384.231514369 147.862719.134832557 148.108858.0101730104L153.195363.0101730104zM146.55917 29.5628182C151.329943 29.5750036 155.578858 26.5478566 157.125536 22.0347405 158.159792 18.9828374 158.312388 15.9309343 155.925121 13.3232526 153.537855 10.7155709 150.557163 10.3595156 147.376401 11.1394464 142.805329 12.2584775 139.990796 15.2289965 138.858201 19.7729412 137.484844 25.2833218 140.872457 29.5797232 146.55917 29.5628182zM234.240346 1.02747405C233.446851 5.21536332 232.616055 9.39986159 231.866644 13.5945329 230.364429 21.9567474 228.902907 30.3291349 227.407474 38.7896886L216.359585 38.7896886C217.166644 34.1236678 217.963529 29.5288581 218.804498 24.6763322 215.796678 24.6763322 212.938062 24.6356401 210.086228 24.7339792 209.747128 24.7339792 209.268997 25.524083 209.177439 26.0089965 208.448374 29.8238754 207.743045 33.6421453 207.159792 37.4807612 206.98346 38.6506574 206.532457 38.9388927 205.42699 38.9151557 202.327612 38.8507266 199.228235 38.8914187 195.867751 38.8914187 196.274671 36.4600692 196.644291 34.1643599 197.051211 31.8754325 198.821315 21.8448443 200.618547 11.8210381 202.347958 1.78366782 202.537855.688373702 202.883737.257716263 204.04346.284844291 207.193702.359446367 210.343945.308581315 213.667128.308581315 212.86346 4.93051903 212.093702 9.33882353 211.293426 13.8556401L220.689896 13.8556401C221.493564 9.39986159 222.29045 4.97799308 223.121246.35266436L234.240346.35266436 234.240346 1.02747405z"/>
      <path d="M187.444498.0101730104C187.807407.144085762 188.177622.257301129 188.553356.349273356 193.507612 1.33944637 196.908789 4.15058824 198.943391 9.03363322L189.818201 13.9132872C188.872111 12.0584083 187.688651 10.5528028 185.562491 10.3391696 184.633356 10.2442215 183.578754 10.2340484 182.758131 10.5934948 182.037157 10.9621167 181.514988 11.6294023 181.330519 12.4178547 181.252526 12.9807612 181.859516 13.9336332 182.422422 14.2388235 183.897509 15.0391003 185.515017 15.5952249 187.07827 16.2225606 188.434671 16.7752941 189.852111 17.2059516 191.147474 17.8977163 196.10173 20.566436 197.651419 24.0896886 196.44083 29.5729412 195.348927 34.5102422 192.432664 37.8673356 187.580138 39.3017301 181.934118 40.9667128 176.305052 40.9972318 170.964221 38.1182699 168.058131 36.5550173 166.216817 34.0490657 165.250381 30.6580623L174.629896 25.8055363C176.210104 29.3423529 179.011073 30.4579931 182.544498 30.1053287 183.154879 30.0442907 183.870381 29.9934256 184.317993 29.6509343 184.894464 29.2134948 185.542145 28.5149481 185.603183 27.8740484 185.654048 27.3552249 185.009758 26.5176471 184.457024 26.2429758 183.165052 25.5647751 181.744221 25.1544637 180.38782 24.6492042 179.228097 24.2185467 178.014118 23.8896194 176.895087 23.3843599 170.221592 20.3934948 168.044567 14.2523875 171.381315 7.72470588 173.507474 3.57072664 177.091765 1.32249135 181.574671.36283737 182.066367.25432526 182.55128.122076125 183.039585 0L187.444498.0101730104zM11.2106574.457785467C11.76 7.26692042 12.3093426 14.0557093 12.9061592 21.2955017 13.3435986 20.4918339 13.6148789 20.0476125 13.8352941 19.579654 16.66 13.5640138 19.4914879 7.55515571 22.2721107 1.52256055 22.6790311.634117647 23.1469896.25432526 24.1575087.284844291 26.5752941.359446367 28.9964706.308581315 31.5397232.308581315 32.363737 7.19910035 33.1741869 13.9438062 34.0456747 21.2073356 34.4763322 20.4104498 34.7238754 20.0306574 34.9002076 19.623737 37.4909343 13.689481 40.1087889 7.75522491 42.6215225 1.80062284 43.12.613771626 43.7473356.244152249 44.9952249.278062284 48.3624913.366228374 51.7331488.308581315 55.3276125.308581315 55.0224221 1.04782007 54.8291349 1.55986159 54.6053287 2.0549481 49.2339792 13.8352941 43.8694118 25.6212918 38.5116263 37.4129412 37.9928028 38.5591003 37.3925952 38.9694118 36.1379239 38.9253287 33.1538408 38.8202076 30.1629758 38.8914187 27.0262976 38.8914187 26.2294118 32.1568858 25.442699 25.524083 24.6051211 18.4436678 24.1608997 19.2676817 23.8896194 19.7220761 23.6658131 20.1968166 20.9530104 25.9615225 18.2198616 31.6991003 15.5850519 37.4909343 15.0797924 38.6065744 14.4728028 38.9490657 13.2995156 38.9185467 10.2645675 38.8405536 7.22622837 38.8948097 4.09972318 38.8948097 2.7433218 26.0089965 1.38692042 13.3130796 1.9275623e-14.461176471L11.2106574.457785467zM67.4470588.315363322C66.64 4.91017301 65.8668512 9.32186851 65.0733564 13.8420761L74.459654 13.8420761C75.2599308 9.4100346 76.0669896 4.94747405 76.8910035.406920415L87.9083737.406920415C85.6499654 13.2486505 83.4119031 25.9716955 81.1602768 38.7829066L70.1157785 38.7829066C70.9194464 34.1338408 71.7163322 29.5119031 72.55391 24.6729412 69.563045 24.6729412 66.7010381 24.6390311 63.8424221 24.7238062 63.5338408 24.7238062 63.0624913 25.4020069 62.9811073 25.8360554 62.2656055 29.5932872 61.6247059 33.364083 60.9465052 37.1280969 60.8481661 37.6774394 60.72609 38.223391 60.6074048 38.8235986L49.6578547 38.8235986C50.0546021 36.4498962 50.4208304 34.1474048 50.8277509 31.8516955 52.6046367 21.7713725 54.3984775 11.6910496 56.2092734 1.61072664 56.2940484 1.13937716 56.80609.383183391 57.1350173.373010381 60.5294118.278062284 63.9068512.315363322 67.4470588.315363322z"/>
    </g>
    <path fill="#000" d="M.0203460208 17.9858381C.818362168 13.964108 1.60959631 9.94350823 2.39404844 5.92403879 2.75010381 4.11324295 3.08920415 2.29905609 3.44186851.454350213L7.77557093.454350213C6.91764706 5.147499 6.0800692 9.76265471 5.1950173 14.5744886L11.9770242 14.5744886C11.776955 15.8189869 11.72609 16.893935 11.3903806 17.873935 11.2615225 18.2435544 10.4849827 18.5894367 9.9966782 18.6030007 6.6667128 18.6742118 3.3333564 18.6538658 1.9275623e-14 18.6640388L.0203460208 17.9858381zM77.0130796 4.41843326L73.2829758 6.36486924C71.4653979 3.99116682 69.1188235 3.58763741 66.5755709 4.5574644 64.0323183 5.52729139 62.8454671 7.68057859 62.6013149 10.3526893 62.3571626 13.0248 63.9577163 14.7949038 66.616263 14.957672 69.4036678 15.1306132 71.1364706 14.3337274 72.2555017 12.2448692L67.8471972 12.2448692C67.94714 11.256064 68.1010954 10.2734659 68.3083737 9.30147824 68.4596276 8.92541829 68.7872241 8.64861196 69.1832526 8.56223949 71.9401384 8.50798343 74.7004152 8.53172045 77.467474 8.53172045 77.0062976 15.4188485 72.1944637 19.5694367 65.4768858 19.0031391 61.7926071 18.7022362 58.8316966 15.8448937 58.3998616 12.1736582 57.5283737 4.78127063 64.6257439-1.43782972 71.8858824.352620109 74.1269533.852146628 76.0160144 2.35015209 77.0130796 4.41843326L77.0130796 4.41843326zM33.2521799 19.0404688C27.7824913 19.0404688 24.1439446 14.4761495 25.3307958 9.13531907 26.3480969 4.61511146 28.9388235 1.55981734 33.5166782.413658171 36.8364706-.417137677 39.9595848-.0780373306 42.3773702 2.64832945 44.8765398 5.45947132 44.8934948 8.6775336 43.6320415 12.000717 41.9704498 16.3445924 37.9317647 19.0506132 33.2521799 19.0404688zM33.7710035 14.971236C37.3195492 14.9010281 40.158805 12.0029667 40.1562647 8.45372738 40.1562647 5.80874468 38.3692042 4.08950592 35.6394464 4.11324295 32.1806228 4.14376198 29.3491349 7.13123603 29.3660142 10.7392637 29.362699 13.3605094 31.0649827 14.994973 33.7574394 14.974627L33.7710035 14.971236zM109.671834 14.4931045L113.256125 12.6585717C114.164913 14.6558727 115.755294 15.3374644 117.698339 14.910198 118.37654 14.7609938 118.942837 13.991236 119.56 13.5029315 119.108997 12.943416 118.766505 12.2007862 118.203599 11.8650769 117.186298 11.2818243 116.002837 11.007153 114.938062 10.5086755 111.207958 8.72161665 110.689135 4.34383118 113.846159 1.69206648 117.423668-1.3191446 123.059516-.172985428 124.944913 4.13697997L121.957439 5.80196267C120.601038 5.15767201 119.522699 4.39808724 118.352803 4.19801803 117.728858 4.09289693 116.938754 4.9542118 116.219862 5.38147824 116.674256 5.99185886 117.003183 6.80569969 117.606782 7.16853706 118.657993 7.7958727 119.8991 8.09089001 121.018131 8.61988654 123.869965 9.97628793 124.748235 12.2753883 123.527474 15.1780872 122.438962 17.7959419 119.871972 19.1286063 116.094394 19.0404402 112.789296 18.9635774 110.656355 17.6196097 109.695571 15.0085371 109.66474 14.83855 109.656757 14.6652058 109.671834 14.4931045zM214.92519 14.7169108C215.711903 14.2760803 216.186644 13.994627 216.678339 13.7436928 217.376886 13.3842464 218.085606 13.0654921 218.875709 12.6687447 219.679377 14.7033468 221.27654 15.2933814 223.148374 14.913589 223.884221 14.7677758 224.484429 13.950544 225.145675 13.4385025 224.667543 12.8925509 224.287751 12.1736582 223.690934 11.8379488 222.673633 11.2614782 221.483391 10.986807 220.422007 10.4815474 217.092042 8.86403879 216.312111 5.39504225 218.604429 2.48556129 221.354533-1.01395429 228.81474-.932570203 230.489896 4.16071699L227.482076 5.80535367C226.125675 5.15767201 225.0609 4.39469623 223.897785 4.19462703 223.273841 4.08950592 222.483737 4.9508208 221.764844 5.37808724 222.22263 5.99185886 222.56173 6.79213568 223.165329 7.17192807 224.104637 7.75857167 225.244014 8.01967893 226.268097 8.48763741 230.06263 10.2102672 230.744221 14.2523433 227.743183 17.1380872 225.179585 19.5863917 219.567474 19.803416 216.891972 17.4432775 216.118824 16.7311668 215.627128 15.7003018 214.92519 14.7169108zM203.331349 4.34383118L199.821661 6.20210108C197.542907 3.90639174 195.074256 3.48929831 192.605606 4.93725679 190.286159 6.29365817 188.939931 9.52189347 189.621522 12.1058381 190.353979 14.8864609 193.907751 15.927499 196.769758 14.1709592 197.398173 13.7349649 198.001592 13.2640034 198.577163 12.7603018L201.652803 14.7677758C199.835225 18.2503364 194.372318 19.9627931 190.333633 18.5826547 186.678131 17.3313744 184.626574 13.4249384 185.420069 9.28791423 186.688304 2.68223949 192.846367-1.35305463 198.943391.417049175 200.962798.924738629 202.603449 2.39295566 203.331349 4.34383118L203.331349 4.34383118zM153.883737.495042254C153.65654 1.74971353 153.442907 2.95012876 153.205536 4.3573952L148.329273 4.3573952C147.434048 9.17262011 146.572734 13.7945578 145.694464 18.5182256L141.384498 18.5182256C142.232249 13.8454229 143.08 9.26756821 143.934533 4.45234329L139.051488 4.45234329 139.773772.495042254 153.883737.495042254zM171.917093.464523223C170.79128 6.56832945 169.695986 12.5229315 168.590519 18.5453537L164.270381 18.5453537 167.576609.464523223 171.917093.464523223zM98.4849135.396703154C97.3591003 6.57172045 96.2773702 12.4822395 95.1786851 18.5080526L90.8721107 18.5080526C91.6079585 14.4218935 92.3336332 10.3933814 93.062699 6.36486924 93.3441522 4.81518066 93.7408997 3.27905609 93.9070588 1.7191945 94.0291349.617118379 94.5038754.291582047 95.5415225.379748136 96.4299654.457741216 97.3421453.396703154 98.4849135.396703154z" transform="translate(290.677 70.333)"/>
    <g fill="#CA352C">
      <path d="M279.506851 0C278.316609 2.72975779 277.17045 5.4832526 275.925952 8.18927336 263.779377 34.5441522 251.635063 60.9001615 239.49301 87.257301 238.81481 88.7154325 238.065398 89.176609 236.498754 89.1601021 228.875779 89.0748789 221.239239 89.1223529 213.375502 89.1223529 211.524014 73.4875663 209.675917 57.8968627 207.831211 42.3502422L207.414118 42.2417301C207.112318 42.8487197 206.800346 43.4523183 206.50872 44.06609 199.613679 58.6338408 192.726551 73.2049827 185.847336 87.7795156 185.375986 88.7968166 184.830035 89.152872 183.70083 89.135917 148.273887 89.1020069 112.846943 89.0918339 77.42 89.1053979L75.7482353 89.1053979C76.9520415 84.0765398 78.1219377 79.2172318 79.2748789 74.3579239 80.1395848 70.7465052 81.0348097 67.1418685 81.8757785 63.5236678 82.0826298 62.6352249 82.4251211 62.1672664 83.4424221 62.1672664 96.7803691 62.2486505 110.118316 62.3085582 123.456263 62.3469896 123.694047 62.3800768 123.928783 62.4322405 124.158201 62.5029758 123.459654 66.1516955 122.761107 69.7958939 122.062561 73.4355709L122.428789 73.6492042 154.775571 44.8256747 135.484152 15.4867128C134.921246 17.4975779 134.439723 19.1727336 133.98872 20.8546713 133.510588 22.6485121 133.117232 24.469481 132.554325 26.2328028 132.411903 26.6702422 131.757439 27.2501038 131.336955 27.2501038 123.934394 27.2501038 116.535225 27.1992388 109.132664 27.1449827 108.981438 27.110102 108.835489 27.0553713 108.698616 26.9822145 108.663152 26.6814571 108.663152 26.3775741 108.698616 26.0768166 110.710611 17.646782 112.730519 9.21900807 114.758339.79349481 114.822768.525605536 114.941453.267889273 115.03301.00339100346L176.759446.00339100346C177.098547 5.22892734 177.437647 10.4578547 177.827612 15.68 178.437993 23.6047751 179.10263 31.5261592 179.753702 39.4509343 179.997855 42.4485813 180.265744 45.4462284 180.55737 48.8474048 180.974464 48.1149481 181.211834 47.7555017 181.394948 47.3723183 188.672042 31.9997693 195.943483 16.6272203 203.209273 1.25467128 203.357787.846853609 203.471232.427107357 203.548374 0L223.894394 0C224.884567 7.99937716 225.895087 15.9953633 226.861522 23.9947405 227.814394 31.8856055 228.719792 39.7832526 229.662491 47.6741176 229.689619 47.8877509 229.899862 48.0810381 230.13045 48.4540484 230.46955 47.7080277 230.757785 47.1620761 231.001938 46.6025606 233.696655 40.4648443 236.389112 34.3259977 239.079308 28.1860208 243.182422 18.7929412 247.276494 9.39760092 251.361522 0L279.506851 0zM128.607197 98C127.881522 97.9355709 127.155848 97.8134948 126.430173 97.8101038 116.386021 97.7626298 106.342999 97.7230681 96.3011073 97.6914187L94.3580623 97.6914187C94.2665052 97.4506574 94.1783391 97.3523183 94.1986851 97.2573702 94.6123875 95.6398616 94.5581315 93.4492734 95.6025606 92.5710035 96.5757785 91.7537716 98.7222837 92.3031142 100.349965 92.3031142 117.390888 92.3031142 134.431811 92.3110265 151.472734 92.3268512L153.937993 92.3268512 150.98782 98 128.607197 98z"/>
      <path d="M72.7065052 36.1141869L106.368997 36.1141869C105.053287 41.4244983 103.774879 46.5686505 102.489689 51.7568858L68.8102422 51.7568858C70.1293426 46.4567474 71.4179239 41.2922491 72.7065052 36.1141869zM69.573218 69.3053287L66.4772318 82.2386159 39.7900346 82.2386159C40.8412457 77.8540484 41.8585467 73.5949481 42.8860208 69.3053287L69.573218 69.3053287zM53.9847751 48.6778547L51.3296194 59.5697578 27.9656055 59.5697578C28.8235294 56.0261592 29.6373702 52.5435986 30.5393772 49.0847751 30.760292 48.6791041 31.165422 48.4069075 31.6244983 48.3557093 38.9117647 48.3557093 46.2058131 48.4133564 53.4829066 48.4642215 53.5880277 48.4642215 53.6897578 48.5489965 53.9847751 48.6778547zM80.2989619 24.7543253C81.1060208 21.4175779 81.8181315 18.3588927 82.6150173 15.3205536 82.6862284 15.0424913 83.276263 14.723737 83.6323183 14.723737 90.0752249 14.703391 96.4910035 14.723737 102.920346 14.7508651 103.13465 14.8021253 103.341089 14.8819638 103.534118 14.9882353 102.805052 18.0401384 102.096332 21.0920415 101.306228 24.1269896 101.235017 24.4084429 100.628028 24.7271972 100.288927 24.7305882 93.7442907 24.7543253 87.209827 24.7543253 80.2989619 24.7543253zM65.0394464 24.8187543L62.757301 34.3949481 42.8487197 34.3949481C43.5710035 31.363391 44.2390311 28.467474 44.9782699 25.5783391 45.1367159 25.2048035 45.4690637 24.9333438 45.8667128 24.8526644 52.1841522 24.8085813 58.4914187 24.8187543 65.0394464 24.8187543zM30.369827 65.4768858C29.8069204 67.9184083 29.2914879 70.1462976 28.7591003 72.4487889L14.3303806 72.4487889C14.8288581 70.2921107 15.2730796 68.2168166 15.8190311 66.1686505 16.0069185 65.7961787 16.3680765 65.5418421 16.7820761 65.4904498 21.2310727 65.4463668 25.6800692 65.4768858 30.369827 65.4768858zM52.7504498 97.1047751C53.2285813 95.043045 53.6049827 93.2254671 54.1068512 91.4384083 54.2085813 91.0620069 54.7274048 90.5296194 55.0631142 90.5262284 59.2883045 90.4651903 63.5168858 90.4855363 67.9692734 90.4855363 67.4165398 92.8355017 66.9180623 94.9514879 66.4128028 97.1047751L52.7504498 97.1047751zM1.50221453 47.9250519L15.1069204 47.9250519C14.5880969 49.98 14.1303114 51.916263 13.5843599 53.8287889 13.5165398 54.0593772 12.9773702 54.2899654 12.6518339 54.2933564 8.54193772 54.3238754 4.42865052 54.3137024 3.01181609e-14 54.3137024L1.50221453 47.9250519zM20.1561246 30.342699L33.1877509 30.342699C32.7367474 32.34 32.34 34.2287889 31.8516955 36.1074048 31.6890935 36.4440176 31.3678281 36.6760426 30.9971626 36.7245675 26.9550865 36.7686505 22.9096194 36.7550865 18.647128 36.7550865L20.1561246 30.342699zM105.548374.339100346C105.114325 2.17024221 104.771834 3.8182699 104.300484 5.42560554 104.103691 5.84752983 103.711824 6.14555159 103.252664 6.22249135 99.4818685 6.28352941 95.7076817 6.25979239 91.6622145 6.25979239 92.133564 4.34387543 92.5065744 2.67211073 92.9813149 1.03086505 93.1589959.667263589 93.5036279.413857728 93.9036678.35266436 97.7490657.339100346 101.570727.339100346 105.548374.339100346zM72.52 13.1435294C72.0520415 15.0933564 71.6417301 16.8092042 71.2246367 18.5691349L59.5968858 18.5691349C59.9936332 16.9448443 60.3191696 15.4256747 60.756609 13.9370242 60.9153196 13.557757 61.2497753 13.2803107 61.6518339 13.1943945 65.1954325 13.1265744 68.7254671 13.1435294 72.52 13.1435294z"/>
    </g>
  </g>
</svg>
